<svg width="46" height="31" viewBox="0 0 46 31" fill="none" xmlns="http://www.w3.org/2000/svg">
<mask id="mask0_23010_92352" style="mask-type:alpha" maskUnits="userSpaceOnUse" x="0" y="0" width="46" height="31">
<rect x="0.078125" y="0.394043" width="45" height="30.4545" rx="4" fill="#D9D9D9"/>
</mask>
<g mask="url(#mask0_23010_92352)">
<path d="M46.4963 -0.0742188H-0.398438V31.3174H46.4963V-0.0742188Z" fill="#FF9933"/>
<path d="M46.4963 10.3896H-0.398438V31.3174H46.4963V10.3896Z" fill="white"/>
<path d="M46.4963 20.853H-0.398438V31.3169H46.4963V20.853Z" fill="#128807"/>
<path d="M23.0512 19.8071C25.3534 19.8071 27.2197 17.9332 27.2197 15.6216C27.2197 13.31 25.3534 11.436 23.0512 11.436C20.7491 11.436 18.8828 13.31 18.8828 15.6216C18.8828 17.9332 20.7491 19.8071 23.0512 19.8071Z" fill="#000088"/>
<path d="M23.0536 19.2842C25.068 19.2842 26.701 17.6445 26.701 15.6218C26.701 13.5992 25.068 11.9595 23.0536 11.9595C21.0392 11.9595 19.4062 13.5992 19.4062 15.6218C19.4062 17.6445 21.0392 19.2842 23.0536 19.2842Z" fill="white"/>
<path d="M23.0498 16.3541C23.4527 16.3541 23.7793 16.0262 23.7793 15.6216C23.7793 15.2171 23.4527 14.8892 23.0498 14.8892C22.6469 14.8892 22.3203 15.2171 22.3203 15.6216C22.3203 16.0262 22.6469 16.3541 23.0498 16.3541Z" fill="#000088"/>
<path d="M26.641 16.282C26.7409 16.2952 26.8325 16.2246 26.8456 16.1244C26.8588 16.0241 26.7885 15.9321 26.6886 15.9189C26.5888 15.9057 26.4972 15.9763 26.484 16.0766C26.4709 16.1768 26.5412 16.2688 26.641 16.282Z" fill="#000088"/>
<path d="M23.0469 19.2848L23.172 17.0874L23.0469 16.041L22.9219 17.0874L23.0469 19.2848Z" fill="#000088"/>
<path d="M26.3506 17.1926C26.4439 17.2316 26.5506 17.1876 26.5889 17.0945C26.6272 17.0013 26.5826 16.8942 26.4893 16.8552C26.3959 16.8162 26.2893 16.8602 26.251 16.9534C26.2127 17.0466 26.2573 17.1537 26.3506 17.1926Z" fill="#000088"/>
<path d="M22.1087 19.1595L22.7954 17.0704L22.9423 16.0271L22.5514 17.0046L22.1087 19.1595Z" fill="#000088"/>
<path d="M25.8147 17.9963C25.8949 18.0581 26.0094 18.0434 26.0704 17.9634C26.1315 17.8835 26.116 17.7685 26.0358 17.7067C25.9556 17.6449 25.8411 17.6596 25.7801 17.7395C25.719 17.8195 25.7345 17.9344 25.8147 17.9963Z" fill="#000088"/>
<path d="M21.2142 18.7929L22.4165 16.9538L22.8279 15.9847L22.1982 16.8273L21.2142 18.7929Z" fill="#000088"/>
<path d="M25.1198 18.6388C25.1813 18.7193 25.2958 18.7348 25.3755 18.6735C25.4552 18.6121 25.4699 18.4972 25.4083 18.4167C25.3468 18.3362 25.2323 18.3207 25.1526 18.382C25.0729 18.4434 25.0583 18.5583 25.1198 18.6388Z" fill="#000088"/>
<path d="M20.4541 18.2116L22.0898 16.7478L22.7374 15.9189L21.9119 16.5691L20.4541 18.2116Z" fill="#000088"/>
<path d="M24.2703 19.076C24.3086 19.1691 24.4152 19.213 24.5086 19.174C24.6019 19.135 24.6466 19.0279 24.6083 18.9348C24.5701 18.8416 24.4634 18.7977 24.3701 18.8367C24.2767 18.8757 24.2321 18.9828 24.2703 19.076Z" fill="#000088"/>
<path d="M19.8804 17.4536L21.8384 16.4617L22.6792 15.8301L21.7144 16.2459L19.8804 17.4536Z" fill="#000088"/>
<path d="M23.3403 19.2772C23.3531 19.3772 23.4448 19.4473 23.5449 19.4338C23.6451 19.4203 23.7158 19.3284 23.703 19.2284C23.6901 19.1284 23.5985 19.0583 23.4984 19.0718C23.3982 19.0853 23.3274 19.1773 23.3403 19.2772Z" fill="#000088"/>
<path d="M19.5201 16.57L21.6664 16.1197L22.6413 15.728L21.6025 15.8795L19.5201 16.57Z" fill="#000088"/>
<path d="M22.3885 19.2286C22.3751 19.3292 22.4449 19.4212 22.5445 19.4341C22.6441 19.447 22.7357 19.3759 22.7491 19.2753C22.7625 19.1748 22.6927 19.0828 22.5932 19.0699C22.4936 19.057 22.402 19.1281 22.3885 19.2286Z" fill="#000088"/>
<path d="M19.3949 15.6263L21.5824 15.7397L22.6246 15.616L21.5832 15.4989L19.3949 15.6263Z" fill="#000088"/>
<path d="M21.4841 18.935C21.4454 19.0286 21.4894 19.1357 21.5823 19.1742C21.6753 19.2128 21.7819 19.1682 21.8206 19.0747C21.8593 18.9811 21.8153 18.874 21.7224 18.8354C21.6294 18.7969 21.5228 18.8414 21.4841 18.935Z" fill="#000088"/>
<path d="M19.5271 14.6737L21.6081 15.3635L22.6471 15.512L21.6732 15.1197L19.5271 14.6737Z" fill="#000088"/>
<path d="M20.6851 18.415C20.624 18.495 20.6395 18.6099 20.7197 18.6717C20.7999 18.7336 20.9144 18.7189 20.9754 18.6389C21.0365 18.559 21.0209 18.444 20.9408 18.3822C20.8606 18.3203 20.7461 18.335 20.6851 18.415Z" fill="#000088"/>
<path d="M19.8892 13.789L21.7232 14.9968L22.688 15.4126L21.8472 14.781L19.8892 13.789Z" fill="#000088"/>
<path d="M20.0469 17.7047C19.9672 17.766 19.9526 17.881 20.0142 17.9615C20.0757 18.042 20.1902 18.0575 20.2699 17.9962C20.3495 17.9349 20.3641 17.82 20.3026 17.7395C20.241 17.659 20.1265 17.6434 20.0469 17.7047Z" fill="#000088"/>
<path d="M20.4782 13.0305L21.9387 14.6733L22.7637 15.3255L22.1143 14.497L20.4782 13.0305Z" fill="#000088"/>
<path d="M19.6134 16.8532C19.5206 16.8917 19.4767 16.9988 19.5155 17.0924C19.5542 17.1861 19.6609 17.2308 19.7538 17.1923C19.8466 17.1538 19.8905 17.0466 19.8517 16.953C19.813 16.8594 19.7063 16.8147 19.6134 16.8532Z" fill="#000088"/>
<path d="M21.229 12.4488L22.2163 14.4147L22.8454 15.2587L22.4317 14.2899L21.229 12.4488Z" fill="#000088"/>
<path d="M19.4197 15.917C19.32 15.93 19.25 16.022 19.2634 16.1225C19.2767 16.2229 19.3683 16.2938 19.468 16.2809C19.5677 16.2679 19.6376 16.1759 19.6243 16.0754C19.6109 15.9749 19.5193 15.904 19.4197 15.917Z" fill="#000088"/>
<path d="M22.1204 12.0829L22.568 14.2381L22.9582 15.2168L22.8079 14.1737L22.1204 12.0829Z" fill="#000088"/>
<path d="M19.4512 14.9627C19.351 14.9492 19.2594 15.0193 19.2465 15.1192C19.2337 15.2192 19.3045 15.3112 19.4046 15.3247C19.5048 15.3382 19.5964 15.2681 19.6092 15.1681C19.6221 15.0681 19.5513 14.9761 19.4512 14.9627Z" fill="#000088"/>
<path d="M23.0417 11.9597L22.9287 14.1562L23.0519 15.2027L23.1686 14.157L23.0417 11.9597Z" fill="#000088"/>
<path d="M19.7354 14.051C19.6421 14.0121 19.5354 14.056 19.4971 14.1492C19.4588 14.2424 19.5034 14.3495 19.5967 14.3885C19.69 14.4274 19.7967 14.3834 19.835 14.2903C19.8733 14.1971 19.8287 14.09 19.7354 14.051Z" fill="#000088"/>
<path d="M23.9851 12.0842L23.2983 14.1732L23.1514 15.2166L23.5424 14.239L23.9851 12.0842Z" fill="#000088"/>
<path d="M20.2556 13.2474C20.1754 13.1856 20.0609 13.2002 19.9999 13.2802C19.9388 13.3602 19.9543 13.4751 20.0345 13.537C20.1147 13.5988 20.2292 13.5841 20.2902 13.5041C20.3513 13.4242 20.3358 13.3092 20.2556 13.2474Z" fill="#000088"/>
<path d="M24.856 12.4503L23.6538 14.2893L23.2424 15.2585L23.8721 14.4159L24.856 12.4503Z" fill="#000088"/>
<path d="M20.966 12.6054C20.9044 12.5249 20.7899 12.5093 20.7103 12.5706C20.6306 12.6319 20.616 12.7469 20.6776 12.8274C20.7391 12.9079 20.8536 12.9235 20.9333 12.8622C21.0129 12.8009 21.0276 12.6859 20.966 12.6054Z" fill="#000088"/>
<path d="M25.6316 13.0327L23.9959 14.4962L23.3485 15.3252L24.174 14.675L25.6316 13.0327Z" fill="#000088"/>
<path d="M21.8234 12.1672C21.7852 12.074 21.6785 12.0302 21.5852 12.0691C21.4918 12.1081 21.4472 12.2153 21.4854 12.3084C21.5237 12.4015 21.6304 12.4454 21.7237 12.4064C21.817 12.3675 21.8617 12.2603 21.8234 12.1672Z" fill="#000088"/>
<path d="M26.2133 13.789L24.2554 14.7809L23.4146 15.4126L24.3794 14.9968L26.2133 13.789Z" fill="#000088"/>
<path d="M22.7613 11.9659C22.7484 11.8659 22.6568 11.7958 22.5567 11.8093C22.4565 11.8228 22.3857 11.9148 22.3986 12.0148C22.4115 12.1148 22.5031 12.1849 22.6032 12.1714C22.7034 12.1579 22.7741 12.0659 22.7613 11.9659Z" fill="#000088"/>
<path d="M26.5815 14.6722L24.4351 15.1225L23.4602 15.5142L24.499 15.3627L26.5815 14.6722Z" fill="#000088"/>
<path d="M23.7129 12.0138C23.7264 11.9132 23.6567 11.8213 23.5571 11.8084C23.4576 11.7955 23.366 11.8667 23.3525 11.9673C23.339 12.0679 23.4088 12.1598 23.5083 12.1727C23.6079 12.1856 23.6995 12.1145 23.7129 12.0138Z" fill="#000088"/>
<path d="M26.6988 15.6157L24.5115 15.5038L23.4692 15.6273L24.5106 15.7433L26.6988 15.6157Z" fill="#000088"/>
<path d="M24.6174 12.3074C24.6561 12.2138 24.6122 12.1067 24.5193 12.0682C24.4264 12.0296 24.3198 12.0743 24.281 12.1679C24.2423 12.2615 24.2862 12.3686 24.3791 12.4072C24.472 12.4457 24.5787 12.401 24.6174 12.3074Z" fill="#000088"/>
<path d="M26.5744 16.5682L24.4936 15.8785L23.4545 15.7304L24.4283 16.1228L26.5744 16.5682Z" fill="#000088"/>
<path d="M25.4158 12.826C25.4772 12.7456 25.4624 12.6306 25.3826 12.5692C25.3028 12.5078 25.1883 12.5231 25.1269 12.6035C25.0654 12.6839 25.0803 12.7988 25.1601 12.8603C25.2398 12.9217 25.3543 12.9063 25.4158 12.826Z" fill="#000088"/>
<path d="M26.2115 17.4514L24.3795 16.2441L23.4143 15.8303L24.2539 16.4624L26.2115 17.4514Z" fill="#000088"/>
<path d="M26.0618 13.5367C26.1418 13.475 26.1571 13.3601 26.0959 13.28C26.0348 13.1999 25.9203 13.185 25.8402 13.2467C25.7602 13.3084 25.7449 13.4233 25.8061 13.5034C25.8673 13.5835 25.9817 13.5984 26.0618 13.5367Z" fill="#000088"/>
<path d="M25.6303 18.2103L24.172 16.5678L23.3466 15.9172L23.9945 16.7461L25.6303 18.2103Z" fill="#000088"/>
<path d="M26.4875 14.3877C26.5807 14.3488 26.6251 14.2417 26.5867 14.1484C26.5483 14.0551 26.4416 14.011 26.3484 14.0498C26.2552 14.0886 26.2108 14.1958 26.2492 14.2891C26.2877 14.3824 26.3943 14.4265 26.4875 14.3877Z" fill="#000088"/>
<path d="M24.8638 18.7921L23.8788 16.8264L23.2493 15.9834L23.6614 16.9524L24.8638 18.7921Z" fill="#000088"/>
<path d="M26.6735 15.3238C26.7735 15.3105 26.844 15.2185 26.831 15.1184C26.818 15.0182 26.7263 14.9479 26.6264 14.9612C26.5264 14.9745 26.4559 15.0665 26.4689 15.1667C26.4819 15.2668 26.5735 15.3372 26.6735 15.3238Z" fill="#000088"/>
<path d="M23.9798 19.1578L23.5355 17.0029L23.1448 16.0249L23.2928 17.0682L23.9798 19.1578Z" fill="#000088"/>
</g>
</svg>
