<?xml version="1.0" encoding="UTF-8"?>
<svg version="1.1" xmlns="http://www.w3.org/2000/svg" width="260" height="39">
<path d="M0 0 C1.98 0 3.96 0 6 0 C6.66 3.3 7.32 6.6 8 10 C8.66 6.7 9.32 3.4 10 0 C11.65 0 13.3 0 15 0 C15.66 3.3 16.32 6.6 17 10 C17.66 6.7 18.32 3.4 19 0 C20.98 0 22.96 0 25 0 C24.51449551 11.50645635 22.16717283 22.71684584 20 34 C18.35 34 16.7 34 15 34 C14.34 30.04 13.68 26.08 13 22 C12.34 25.96 11.68 29.92 11 34 C9.35 34 7.7 34 6 34 C3.99610437 27.68141017 2.93538956 21.28514161 1.875 14.75 C1.69324219 13.66203125 1.51148438 12.5740625 1.32421875 11.453125 C0 3.40824718 0 3.40824718 0 0 Z " fill="#505A64" transform="translate(149,3)"/>
<path d="M0 0 C4.95 0 9.9 0 15 0 C16 1 16 1 16.0625 4.5625 C16.0382703 6.79970894 15.99937402 9.03643224 15.9609375 11.2734375 C15.94026472 13.18222413 15.9665157 15.09139512 16 17 C16.33 17.33 16.66 17.66 17 18 C17.09932392 20.31074168 17.12969618 22.62462942 17.125 24.9375 C17.12886719 26.83822266 17.12886719 26.83822266 17.1328125 28.77734375 C17 32 17 32 16 34 C10.72 34 5.44 34 0 34 C0 22.78 0 11.56 0 0 Z M6 5 C6 7.97 6 10.94 6 14 C7.32 13.67 8.64 13.34 10 13 C10 10.36 10 7.72 10 5 C8.68 5 7.36 5 6 5 Z M6 19 C6 22.3 6 25.6 6 29 C7.65 29 9.3 29 11 29 C11 26.03 11 23.06 11 20 C9.35 19.67 7.7 19.34 6 19 Z " fill="#1C68B5" transform="translate(78,3)"/>
<path d="M0 0 C4.95 0 9.9 0 15 0 C16.47905238 2.95810476 16.12190903 5.9547155 16.09765625 9.1953125 C16.0962413 9.90275604 16.09482635 10.61019958 16.09336853 11.33908081 C16.087766 13.60109669 16.07521318 15.86301398 16.0625 18.125 C16.05748532 19.65755065 16.05292236 21.19010286 16.04882812 22.72265625 C16.03779577 26.48180888 16.02052952 30.24088772 16 34 C14.02 34 12.04 34 10 34 C10 29.71 10 25.42 10 21 C8.35 21 6.7 21 5 21 C5 25.29 5 29.58 5 34 C3.02 34 1.04 34 -1 34 C-1.02468857 29.4793335 -1.04285449 24.9587061 -1.05493164 20.43798828 C-1.05996552 18.89956987 -1.06679308 17.36115625 -1.07543945 15.82275391 C-1.08754639 13.61359474 -1.09323769 11.40449874 -1.09765625 9.1953125 C-1.10281754 8.50567413 -1.10797882 7.81603577 -1.11329651 7.10549927 C-1.11387171 2.22774341 -1.11387171 2.22774341 0 0 Z M5 5 C5 8.63 5 12.26 5 16 C6.65 16 8.3 16 10 16 C10 12.37 10 8.74 10 5 C8.35 5 6.7 5 5 5 Z " fill="#1C68B5" transform="translate(103,3)"/>
<path d="M0 0 C5.28 0 10.56 0 16 0 C17.48619895 2.97239791 17.13177009 5.69619578 17.125 9 C17.12886719 10.8871875 17.12886719 10.8871875 17.1328125 12.8125 C17 16 17 16 16 18 C15.01 18 14.02 18 13 18 C14.65 23.28 16.3 28.56 18 34 C16.02 34 14.04 34 12 34 C9.92373687 29.37559575 8.29977048 24.8991349 7 20 C6.67 24.62 6.34 29.24 6 34 C4.02 34 2.04 34 0 34 C0 22.78 0 11.56 0 0 Z M6 5 C6 7.64 6 10.28 6 13 C7.65 13 9.3 13 11 13 C11 10.36 11 7.72 11 5 C9.35 5 7.7 5 6 5 Z " fill="#1C68B5" transform="translate(125,3)"/>
<path d="M0 0 C4.62 0 9.24 0 14 0 C16.84070119 4.73450198 17.38117262 5.73600858 17.3984375 10.81640625 C17.40423828 12.45706055 17.40423828 12.45706055 17.41015625 14.13085938 C17.39855469 15.26330078 17.38695312 16.39574219 17.375 17.5625 C17.38660156 18.69880859 17.39820313 19.83511719 17.41015625 21.00585938 C17.40628906 22.09833984 17.40242188 23.19082031 17.3984375 24.31640625 C17.39505371 25.31099854 17.39166992 26.30559082 17.38818359 27.33032227 C17 30 17 30 14 34 C9.38 34 4.76 34 0 34 C0 22.78 0 11.56 0 0 Z M6 5 C6 12.92 6 20.84 6 29 C7.65 28.67 9.3 28.34 11 28 C11 20.41 11 12.82 11 5 C9.35 5 7.7 5 6 5 Z " fill="#505A64" transform="translate(217,3)"/>
<path d="M0 0 C2.475 0.495 2.475 0.495 5 1 C6.39192267 3.44265821 7.34982433 5.46707077 8.3125 8.0625 C9.199375 10.351875 10.08625 12.64125 11 15 C11.33 10.05 11.66 5.1 12 0 C13.65 0 15.3 0 17 0 C17 11.22 17 22.44 17 34 C15.35 33.67 13.7 33.34 12 33 C10.60807733 30.55734179 9.65017567 28.53292923 8.6875 25.9375 C7.800625 23.648125 6.91375 21.35875 6 19 C5.67 23.95 5.34 28.9 5 34 C3.35 34 1.7 34 0 34 C0 22.78 0 11.56 0 0 Z " fill="#505A64" transform="translate(193,3)"/>
<path d="M0 0 C2.31243792 -0.02685412 4.6249627 -0.04632841 6.9375 -0.0625 C8.22527344 -0.07410156 9.51304688 -0.08570313 10.83984375 -0.09765625 C14 0 14 0 15 1 C15.07205511 2.68608966 15.08386068 4.37500659 15.0625 6.0625 C15.05347656 6.98160156 15.04445313 7.90070312 15.03515625 8.84765625 C15.02355469 9.55792969 15.01195313 10.26820312 15 11 C13.02 11 11.04 11 9 11 C9 9.02 9 7.04 9 5 C7.68 5 6.36 5 5 5 C5 12.92 5 20.84 5 29 C6.65 29 8.3 29 10 29 C10 26.03 10 23.06 10 20 C11.98 20 13.96 20 16 20 C16.02694851 21.95825873 16.04637218 23.91662226 16.0625 25.875 C16.07410156 26.96554688 16.08570312 28.05609375 16.09765625 29.1796875 C16 32 16 32 15 34 C10.05 34 5.1 34 0 34 C-1.45112776 31.09774449 -1.12985159 28.55088766 -1.1328125 25.3125 C-1.13376923 24.65419189 -1.13472595 23.99588379 -1.13571167 23.31762695 C-1.13639225 21.92561752 -1.13454646 20.5336049 -1.13037109 19.14160156 C-1.12502104 17.00839117 -1.13032012 14.87539133 -1.13671875 12.7421875 C-1.13605795 11.39062453 -1.13477674 10.0390617 -1.1328125 8.6875 C-1.13112061 6.83705078 -1.13112061 6.83705078 -1.12939453 4.94921875 C-1 2 -1 2 0 0 Z " fill="#1C68B5" transform="translate(32,3)"/>
<path d="M0 0 C2.31 0 4.62 0 7 0 C7.99 2.97 8.98 5.94 10 9 C10.99 6.03 11.98 3.06 13 0 C14.98 0 16.96 0 19 0 C18.09650436 4.49621947 17.12025224 8.78962913 15.4375 13.0625 C13.07714038 19.73826457 13.24937536 26.9916926 13 34 C11.02 34 9.04 34 7 34 C6.99742188 33.28199219 6.99484375 32.56398437 6.9921875 31.82421875 C6.61923619 21.84155534 3.80323519 13.13996072 0.53491211 3.76489258 C0 2 0 2 0 0 Z " fill="#1C68B5" transform="translate(53,3)"/>
<path d="M0 0 C1.98 0 3.96 0 6 0 C6 11.22 6 22.44 6 34 C4.02 34 2.04 34 0 34 C0 22.78 0 11.56 0 0 Z " fill="#505A64" transform="translate(180,3)"/>
</svg>
