<svg xmlns="http://www.w3.org/2000/svg" xmlns:xlink="http://www.w3.org/1999/xlink" preserveAspectRatio="xMidYMid" width="260" height="39" viewBox="0 0 260 39">
  <defs>
    <style>
      .cls-1 {
        fill: #505a64;
      }

      .cls-1, .cls-2 {
        fill-rule: evenodd;
      }

      .cls-2 {
        fill: #1c68b5;
      }
    </style>
  </defs>
  <path d="M257.957,25.114 C258.654,25.770 259.002,26.638 259.002,27.718 L259.002,35.368 C259.002,37.323 258.032,38.300 256.090,38.300 L246.431,38.300 C244.503,38.300 243.540,37.323 243.540,35.368 L243.540,27.718 L248.338,27.718 L248.338,34.260 L254.204,34.260 L254.204,27.964 L244.585,18.859 C243.888,18.189 243.540,17.334 243.540,16.295 L243.540,9.159 C243.540,7.190 244.503,6.205 246.431,6.205 L256.090,6.205 C258.032,6.205 259.002,7.176 259.002,9.118 L259.002,16.295 L254.204,16.295 L254.204,10.245 L248.338,10.245 L248.338,16.049 L257.957,25.114 ZM236.403,38.300 L230.312,23.986 L230.312,38.300 L225.513,38.300 L225.513,6.205 L230.312,6.205 L230.312,19.782 L235.644,6.205 L240.894,6.205 L240.894,6.431 L234.373,21.668 L241.694,38.300 L236.403,38.300 ZM217.577,38.300 L212.286,23.391 L212.286,20.499 L217.003,20.499 L217.003,10.327 L210.953,10.327 L210.953,38.300 L206.154,38.300 L206.154,6.205 L218.889,6.205 C220.817,6.205 221.781,7.190 221.781,9.159 L221.781,20.827 C221.781,22.181 221.323,23.056 220.407,23.452 C219.915,23.658 218.876,23.760 217.290,23.760 L222.581,38.300 L217.577,38.300 ZM199.386,38.300 L188.968,38.300 C187.068,38.300 186.118,37.323 186.118,35.368 L186.118,9.159 C186.118,7.190 187.068,6.205 188.968,6.205 L199.386,6.205 C201.328,6.205 202.298,7.190 202.298,9.159 L202.298,35.368 C202.298,37.323 201.328,38.300 199.386,38.300 ZM197.500,10.327 L190.917,10.327 L190.917,34.178 L197.500,34.178 L197.500,10.327 ZM174.039,38.341 L171.168,20.151 C171.140,19.494 171.086,18.517 171.004,17.218 C171.004,17.874 170.949,18.852 170.840,20.151 L167.989,38.341 L163.272,38.341 L158.576,6.205 L163.436,6.205 L165.918,25.237 C165.959,25.893 166.013,26.871 166.082,28.169 C166.095,27.513 166.157,26.536 166.266,25.237 L169.035,6.205 L172.972,6.205 L175.741,25.237 C175.782,25.893 175.843,26.871 175.925,28.169 C175.939,27.513 175.994,26.536 176.090,25.237 L178.571,6.205 L183.431,6.205 L178.735,38.341 L174.039,38.341 ZM152.013,38.300 L147.235,38.300 L147.235,10.451 L141.944,10.451 L141.944,6.205 L157.304,6.205 L157.304,10.451 L152.013,10.451 L152.013,38.300 ZM126.768,6.205 L139.955,6.205 L139.955,10.451 L131.567,10.451 L131.567,19.823 L138.786,19.823 L138.786,23.986 L131.567,23.986 L131.567,34.055 L140.078,34.055 L140.078,38.300 L126.768,38.300 L126.768,6.205 ZM111.018,18.100 C111.223,19.084 111.326,19.857 111.326,20.417 L111.326,38.300 L106.650,38.300 L106.650,6.205 L110.854,6.205 L118.545,25.995 C118.340,25.011 118.237,24.239 118.237,23.678 L118.237,6.205 L122.913,6.205 L122.913,38.300 L118.709,38.300 L111.018,18.100 Z" class="cls-1"/>
  <path d="M92.340,27.431 L92.340,35.368 C92.340,37.323 91.363,38.300 89.408,38.300 L79.400,38.300 C77.500,38.300 76.549,37.323 76.549,35.368 L76.549,9.159 C76.549,7.190 77.500,6.205 79.400,6.205 L89.408,6.205 C91.363,6.205 92.340,7.190 92.340,9.159 L92.340,16.664 L87.562,16.664 L87.562,10.327 L81.348,10.327 L81.348,34.178 L87.562,34.178 L87.562,27.431 L92.340,27.431 ZM59.959,6.205 L73.145,6.205 L73.145,10.451 L64.758,10.451 L64.758,19.823 L71.976,19.823 L71.976,23.986 L64.758,23.986 L64.758,34.055 L73.268,34.055 L73.268,38.300 L59.959,38.300 L59.959,6.205 ZM50.033,38.300 L40.251,38.300 L40.251,6.205 L50.033,6.205 C51.933,6.205 53.444,6.749 54.565,7.836 C55.686,8.923 56.247,10.410 56.247,12.296 L56.247,32.250 C56.247,34.137 55.686,35.617 54.565,36.690 C53.444,37.764 51.933,38.300 50.033,38.300 ZM51.428,13.014 C51.428,11.223 50.491,10.327 48.618,10.327 L45.050,10.327 L45.050,34.178 L48.495,34.178 C50.450,34.178 51.428,33.269 51.428,31.451 L51.428,13.014 ZM33.483,38.300 L23.065,38.300 C21.165,38.300 20.215,37.323 20.215,35.368 L20.215,9.159 C20.215,7.190 21.165,6.205 23.065,6.205 L33.483,6.205 C35.424,6.205 36.395,7.190 36.395,9.159 L36.395,35.368 C36.395,37.323 35.424,38.300 33.483,38.300 ZM31.596,10.327 L25.013,10.327 L25.013,34.178 L31.596,34.178 L31.596,10.327 ZM13.509,38.300 L3.501,38.300 C1.600,38.300 0.650,37.323 0.650,35.368 L0.650,9.159 C0.650,7.190 1.600,6.205 3.501,6.205 L13.509,6.205 C15.464,6.205 16.441,7.190 16.441,9.159 L16.441,16.664 L11.663,16.664 L11.663,10.327 L5.449,10.327 L5.449,34.178 L11.663,34.178 L11.663,27.431 L16.441,27.431 L16.441,35.368 C16.441,37.323 15.464,38.300 13.509,38.300 Z" class="cls-2"/>
</svg>
